<svg width="39" height="39" viewBox="0 0 39 39" fill="none" xmlns="http://www.w3.org/2000/svg">
<path fill-rule="evenodd" clip-rule="evenodd" d="M24.5517 11.7267H27.7152V19.6354C27.7152 23.5438 28.0149 24.3806 29.2969 24.3806C31.36 24.3806 32.4604 23.405 32.4604 19.6354C32.4604 11.269 28.2641 6.98148 19.8066 6.98148C14.3274 6.98217 9.47113 10.5092 7.77549 15.7194C6.07984 20.9297 7.93013 26.6393 12.3594 29.8647C16.7888 33.09 22.7907 33.0983 27.2289 29.8851L29.084 32.4475C23.5363 36.464 16.0339 36.4537 10.4973 32.422C4.9606 28.3903 2.64775 21.2532 4.7673 14.7404C6.88685 8.22762 12.9572 3.81885 19.8064 3.81799C30.0267 3.81799 35.6239 9.53694 35.6239 19.6354C35.6239 25.2425 33.0281 27.5441 29.2969 27.5441C27.1712 27.5441 25.9548 26.8588 25.2869 25.3373C23.8654 26.704 21.934 27.5441 19.8064 27.5441C15.4386 27.5441 11.8977 24.0033 11.8977 19.6354C11.8977 15.2676 15.4386 11.7267 19.8064 11.7267C21.5868 11.7267 23.2299 12.315 24.5517 13.3079V11.7267ZM24.5516 19.6354C24.5516 22.2561 22.4271 24.3806 19.8064 24.3806C17.1857 24.3806 15.0611 22.2561 15.0611 19.6354C15.0611 17.0147 17.1857 14.8902 19.8064 14.8902C22.4271 14.8902 24.5516 17.0147 24.5516 19.6354Z" fill="black"/>
</svg>
