<svg width="146" height="105" viewBox="0 0 146 105" fill="none" xmlns="http://www.w3.org/2000/svg">
<path d="M43.5072 54.2811L53.8143 50.0867C52.2956 47.2996 50.7656 45.3762 48.573 43.6323C46.3805 41.8883 43.9879 40.6651 41.3954 39.9627C38.8308 39.1939 36.1369 38.9172 33.3137 39.1324C30.5376 39.3285 27.7595 39.9921 24.9795 41.1234C21.1159 42.6957 17.9072 44.7978 15.3534 47.4298C12.8468 50.0425 11.0223 52.9819 9.87986 56.2477C8.73744 59.5136 8.26233 63.0022 8.45453 66.7135C8.62756 70.3777 9.48105 74.0946 11.015 77.864C12.5106 81.5392 14.4758 84.7488 16.9104 87.4926C19.326 90.1893 22.0732 92.2842 25.1523 93.7773C28.2313 95.2703 31.5802 96.0769 35.1989 96.197C38.8456 96.2508 42.6008 95.4915 46.4645 93.9192C49.5743 92.6537 52.2332 91.0225 54.4412 89.0255C56.6492 87.0286 58.3548 84.7418 59.558 82.1652C60.7612 79.5885 61.4341 76.7883 61.5766 73.7646C61.7192 70.7409 61.5445 67.7835 60.5425 64.5115L49.4992 69.0055C50.4557 72.5706 50.4352 75.4701 49.347 78.3294C48.306 81.1696 46.0892 83.28 42.6967 84.6605C40.1994 85.6768 37.8874 86.0684 35.7605 85.8355C33.6145 85.5555 31.6737 84.835 29.938 83.674C28.2024 82.513 26.6727 81.0485 25.3491 79.2804C24.0534 77.4461 22.9742 75.4688 22.1113 73.3485C21.2101 71.1339 20.5733 68.8942 20.2008 66.6292C19.8754 64.3451 19.9286 62.1815 20.3604 60.1385C20.773 58.0484 21.6593 56.1774 23.0191 54.5256C24.3598 52.8266 26.2788 51.469 28.7761 50.4528C30.1425 49.8967 31.5341 49.605 32.9509 49.5777C34.3957 49.484 35.7758 49.6364 37.0912 50.0347C38.4067 50.4331 39.6147 51.0399 40.7154 51.8552C41.7969 52.6233 42.801 53.0856 43.5072 54.2811Z" fill="#F2F5F8"/>
<path d="M104.195 36.6694L98.0398 21.5445L106.662 18.0356C107.935 17.5179 109.198 17.1136 110.453 16.8227C111.707 16.5318 112.897 16.4869 114.023 16.688C115.129 16.842 116.142 17.3083 117.063 18.0869C118.031 18.8463 118.841 20.027 119.493 21.629C120.145 23.231 120.39 24.6418 120.227 25.8614C120.111 27.0618 119.721 28.1268 119.056 29.0565C118.372 29.9392 117.479 30.7144 116.378 31.3822C115.276 32.05 114.09 32.6428 112.817 33.1605L104.195 36.6694ZM83.4346 17.4375L103.97 67.901L115.067 63.3854L107.704 45.2921L119.365 40.5464C122.522 39.2617 125.026 37.7211 126.876 35.9247C128.707 34.0811 129.999 32.1274 130.752 30.0636C131.552 27.9806 131.865 25.8485 131.692 23.6674C131.546 21.42 131.061 19.2833 130.236 17.2572C129.393 15.184 128.248 13.3157 126.802 11.6523C125.403 9.96974 123.69 8.66218 121.663 7.72963C119.683 6.77791 117.404 6.30503 114.825 6.31098C112.227 6.26982 109.35 6.89158 106.193 8.17626L83.4346 17.4375Z" fill="#F2F5F8"/>
<path d="M78.1628 40.1782L73.9684 29.8711L62.8721 34.3867L67.0665 44.6938L78.1628 40.1782ZM73.0537 59.4064L77.483 70.2907L88.5793 65.7751L84.15 54.8908L73.0537 59.4064Z" fill="#F2F5F8"/>
</svg>
