<svg width="29" height="33" viewBox="0 0 29 33" fill="none" xmlns="http://www.w3.org/2000/svg">
<path fill-rule="evenodd" clip-rule="evenodd" d="M11.138 29.2951C11.1462 29.4894 11.1253 29.679 11.0844 29.8709C11.0125 30.2082 10.8736 30.565 10.6771 30.8948C10.1184 31.832 9.16925 32.4575 7.94728 32.4575C5.06867 32.4575 3.93889 31.0452 2.52432 27.5088C1.56628 25.1137 1.11431 24.5488 0.0385742 24.5488L0.0385742 21.3853C2.91719 21.3853 4.04697 22.7975 5.46154 26.3339C6.41958 28.729 6.87154 29.294 7.94728 29.294C7.94728 28.835 7.941 28.4285 7.92777 27.8779C7.89677 26.5875 7.8932 26.3241 7.9495 25.9791C7.97199 25.2261 8.16641 24.6918 8.55625 24.1614C5.02611 23.393 2.64516 21.8059 1.27862 19.2317L0.766708 18.0278C0.267998 16.5946 0.0385742 14.9707 0.0385742 13.0952C0.0385742 10.9352 0.697126 9.00397 1.9272 7.38961C1.54349 5.85509 1.59604 3.98025 2.44331 1.8629L2.72016 1.17103L3.42994 0.943994C3.52497 0.913597 3.64049 0.886143 3.77621 0.864841C5.1583 0.647921 7.12494 1.16547 9.69597 2.81232C11.2116 2.46098 12.8077 2.28359 14.4147 2.28359C15.8507 2.28359 17.2787 2.42836 18.6424 2.71377C21.1439 1.14732 23.0565 0.656021 24.4014 0.865119C24.5355 0.885978 24.6499 0.912906 24.7441 0.942793L25.4583 1.16927L25.7355 1.86536C26.4767 3.72666 26.6039 5.442 26.3342 6.94296C27.7483 8.63972 28.5099 10.7257 28.5099 13.0952C28.5099 15.0928 28.3668 16.595 27.9554 18.0563L27.5212 19.2479C26.3845 21.8194 23.8777 23.4242 20.0121 24.1886C20.4139 24.745 20.6012 25.3097 20.6012 26.1305V27.7122C20.6012 28.4788 20.6012 28.5024 20.5995 29.294C20.6031 29.3508 20.6078 29.3787 20.613 29.396C20.6117 29.3965 20.6012 32.4575 20.6012 32.4575C19.2539 32.4575 18.2521 31.8004 17.7594 30.7639C17.504 30.2266 17.4277 29.7134 17.4377 29.2715V26.1305C17.4377 25.9979 17.4331 25.9902 17.1101 25.6672C16.2468 24.8039 15.856 24.1525 15.856 22.967V21.5362L17.2797 21.3932C21.5176 20.9676 23.8225 19.7907 24.5867 18.0714L24.9438 17.0951C25.228 16.0742 25.3464 14.8311 25.3464 13.0952C25.3464 11.2508 24.7025 9.72711 23.4847 8.50978L22.8154 7.84068L23.0886 6.93452C23.3313 6.12951 23.3889 5.17694 23.1322 4.09045C23.0895 4.10127 23.0452 4.11305 22.9991 4.12586C22.1522 4.36165 21.0948 4.86759 19.8205 5.71932L19.2394 6.1078L18.5609 5.93955C17.2485 5.61415 15.8384 5.44708 14.4147 5.44708C12.8315 5.44708 11.2665 5.64851 9.82079 6.04264L9.11525 6.23499L8.51168 5.82209C7.19378 4.92052 6.09894 4.38436 5.22103 4.1339C5.15833 4.11602 5.09863 4.10001 5.04188 4.08575C4.73559 5.34321 4.85674 6.37632 5.16695 7.15154L5.5389 8.08106L4.85796 8.81499C3.7729 9.98451 3.20206 11.4077 3.20206 13.0952C3.20206 14.6402 3.38292 15.9204 3.71436 16.8847L4.12827 17.8645C5.16301 19.8061 7.36078 20.9743 11.2793 21.3943L12.6925 21.5458V22.967C12.6925 24.1525 12.3017 24.8039 11.4384 25.6672C11.1154 25.9902 11.1108 25.9979 11.1108 26.1305L11.0835 26.4229C11.0655 26.5188 11.0655 26.7665 11.0903 27.8019C11.1018 28.2782 11.1083 28.6551 11.1102 29.049C11.1291 29.1305 11.1319 29.1831 11.138 29.2951Z" fill="black"/>
</svg>
