<svg width="39" height="38" viewBox="0 0 39 38" fill="none" xmlns="http://www.w3.org/2000/svg">
<path fill-rule="evenodd" clip-rule="evenodd" d="M25.7679 3.16345H13.114C7.87256 3.16345 3.62354 7.41247 3.62354 12.6539V25.3078C3.62354 30.5493 7.87256 34.7983 13.114 34.7983H25.7679C31.0094 34.7983 35.2584 30.5493 35.2584 25.3078V12.6539C35.2584 7.41247 31.0094 3.16345 25.7679 3.16345ZM6.787 12.6539C6.787 9.15963 9.61968 6.32695 13.114 6.32695H25.7679C29.2622 6.32695 32.0949 9.15963 32.0949 12.6539V25.3079C32.0949 28.8021 29.2622 31.6348 25.7679 31.6348H13.114C9.61968 31.6348 6.787 28.8021 6.787 25.3079V12.6539ZM19.4409 26.8896C15.0731 26.8896 11.5322 23.3487 11.5322 18.9809C11.5322 14.613 15.0731 11.0722 19.4409 11.0722C23.8088 11.0722 27.3496 14.613 27.3496 18.9809C27.3496 23.3487 23.8088 26.8896 19.4409 26.8896ZM19.441 23.7261C22.0617 23.7261 24.1862 21.6016 24.1862 18.9809C24.1862 16.3601 22.0617 14.2356 19.441 14.2356C16.8203 14.2356 14.6958 16.3601 14.6958 18.9809C14.6958 21.6016 16.8203 23.7261 19.441 23.7261ZM28.9314 11.0721C28.9314 11.9457 28.2232 12.6539 27.3496 12.6539C26.4761 12.6539 25.7679 11.9457 25.7679 11.0721C25.7679 10.1986 26.4761 9.4904 27.3496 9.4904C28.2232 9.4904 28.9314 10.1986 28.9314 11.0721Z" fill="black"/>
</svg>
