<svg width="39" height="38" viewBox="0 0 39 38" fill="none" xmlns="http://www.w3.org/2000/svg">
<path fill-rule="evenodd" clip-rule="evenodd" d="M7.14507 3.16345H32.0166C33.7336 3.16345 35.1255 4.57979 35.1255 6.32694V31.6348C35.1255 33.382 33.7336 34.7983 32.0166 34.7983H7.14507C5.42805 34.7983 4.03613 33.382 4.03613 31.6348V6.32694C4.03613 4.57979 5.42805 3.16345 7.14507 3.16345ZM7.14507 6.32695V31.6348H32.0166V6.32695H7.14507ZM21.1353 14.2356C20.3305 14.2356 19.4802 14.486 18.7292 14.9508L18.0264 14.2356H16.4719V25.3078H19.5808V18.9809C19.5808 18.0702 20.5041 17.3991 21.1353 17.3991H22.6898C23.321 17.3991 24.2442 18.0702 24.2442 18.9809V25.3078H27.3532V18.9809C27.3532 16.0502 24.8566 14.2356 22.6898 14.2356H21.1353ZM13.363 12.6539C14.2215 12.6539 14.9174 11.9457 14.9174 11.0721C14.9174 10.1986 14.2215 9.4904 13.363 9.4904C12.5044 9.4904 11.8085 10.1986 11.8085 11.0721C11.8085 11.9457 12.5044 12.6539 13.363 12.6539ZM11.8085 14.2356V25.3078H14.9174V14.2356H11.8085Z" fill="black"/>
</svg>
