<svg width="80" height="80" viewBox="0 0 100 100" fill="none" xmlns="http://www.w3.org/2000/svg">
<path d="M48.3907 2.18111C49.1901 1.09771 50.8099 1.09771 51.6093 2.18111L60.4297 14.1352C60.9377 14.8237 61.8274 15.1128 62.643 14.8544L76.8053 10.3678C78.0888 9.96114 79.3993 10.9133 79.4092 12.2596L79.5186 27.1152C79.5249 27.9708 80.0747 28.7276 80.8865 28.998L94.9812 33.6926C96.2586 34.1181 96.7591 35.6587 95.9758 36.7537L87.3324 48.8364C86.8346 49.5323 86.8346 50.4677 87.3324 51.1636L95.9758 63.2463C96.7591 64.3413 96.2586 65.8819 94.9812 66.3074L80.8865 71.002C80.0747 71.2724 79.5249 72.0292 79.5186 72.8848L79.4092 87.7403C79.3993 89.0867 78.0888 90.0389 76.8053 89.6322L62.643 85.1456C61.8274 84.8872 60.9377 85.1763 60.4297 85.8648L51.6093 97.8189C50.8099 98.9023 49.1901 98.9023 48.3907 97.8189L39.5703 85.8648C39.0623 85.1763 38.1726 84.8872 37.357 85.1456L23.1947 89.6322C21.9112 90.0389 20.6007 89.0867 20.5908 87.7404L20.4814 72.8848C20.4751 72.0292 19.9253 71.2724 19.1135 71.002L5.01885 66.3074C3.74145 65.8819 3.24087 64.3413 4.02422 63.2463L12.6676 51.1636C13.1654 50.4677 13.1654 49.5323 12.6676 48.8364L4.02422 36.7537C3.24087 35.6587 3.74145 34.1181 5.01885 33.6926L19.1135 28.998C19.9253 28.7276 20.4751 27.9708 20.4814 27.1152L20.5908 12.2597C20.6007 10.9133 21.9112 9.96114 23.1947 10.3678L37.357 14.8544C38.1726 15.1128 39.0623 14.8237 39.5703 14.1352L48.3907 2.18111Z" fill="#AB92F9"/>
<path d="M47.5977 29.4736L45.9863 59.2344H38.3691L36.7578 29.4736H47.5977ZM46.792 61.0898V69H37.5635V61.0898H46.792ZM63.623 29.4736L62.0117 59.2344H54.3945L52.7832 29.4736H63.623ZM62.8174 61.0898V69H53.5889V61.0898H62.8174Z" fill="#121212"/>
</svg>
